<svg xmlns="http://www.w3.org/2000/svg" class="graphdiagram" viewBox="-1631.5896129623743 -1038.7478349060302 3215.8698341030718 1511.6263152489698"><g class="layer relationships"><g class="related-pair"><g class="relationship" transform="translate(-407.08405883789106,-339.6429693603517) rotate(28.531103049845836)"><path class="relationship" d="M 100.36360145297148 4 L 480.0313496549959 4 L 480.0313496549959 16 L 512.0313496549959 0 L 480.0313496549959 -16 L 480.0313496549959 -4 L 100.36360145297148 -4 Z" fill="rgb(0, 0, 0)" stroke="rgb(51, 51, 51)" stroke-width="0px"/><text class="type" text-anchor="middle" baseline-shift="30%" alignment-baseline="alphabetic" x="290.1974755539837" y="0" font-size="50px" font-family="&quot;Gill Sans&quot;, &quot;Gill Sans MT&quot;, Calibri, sans-serif">HAS_GENRE</text></g></g><g class="related-pair"><g class="relationship" transform="translate(-407.08405883789106,-339.6429693603517) rotate(-31.577353520746833)"><path class="relationship" d="M 100.36360145297148 4 L 692.2767374930212 4 L 692.2767374930212 16 L 724.2767374930212 0 L 692.2767374930212 -16 L 692.2767374930212 -4 L 100.36360145297148 -4 Z" fill="rgb(0, 0, 0)" stroke="rgb(51, 51, 51)" stroke-width="0px"/><text class="type" text-anchor="middle" baseline-shift="30%" alignment-baseline="alphabetic" x="396.3201694729963" y="0" font-size="50px" font-family="&quot;Gill Sans&quot;, &quot;Gill Sans MT&quot;, Calibri, sans-serif">WRITER</text></g></g><g class="related-pair"><g class="relationship" transform="translate(-407.08405883789106,-339.6429693603517) rotate(-66.54517211834006)"><path class="relationship" d="M 100.36360145297148 4 L 348.42073039919734 4 L 348.42073039919734 16 L 380.42073039919734 0 L 348.42073039919734 -16 L 348.42073039919734 -4 L 100.36360145297148 -4 Z" fill="rgb(0, 0, 0)" stroke="rgb(51, 51, 51)" stroke-width="0px"/><text class="type" text-anchor="middle" baseline-shift="30%" alignment-baseline="alphabetic" x="224.39216592608443" y="0" font-size="50px" font-family="&quot;Gill Sans&quot;, &quot;Gill Sans MT&quot;, Calibri, sans-serif">DIRECTOR</text></g></g><g class="related-pair"><g class="relationship" transform="translate(-407.08405883789106,-339.6429693603517) rotate(0)"><path class="relationship" d="M 100.36360145297148 4 L 681.7932897583531 4 L 681.7932897583531 16 L 713.7932897583531 0 L 681.7932897583531 -16 L 681.7932897583531 -4 L 100.36360145297148 -4 Z" fill="rgb(0, 0, 0)" stroke="rgb(51, 51, 51)" stroke-width="0px"/><text class="type" text-anchor="middle" baseline-shift="30%" alignment-baseline="alphabetic" x="391.0784456056623" y="0" font-size="50px" font-family="&quot;Gill Sans&quot;, &quot;Gill Sans MT&quot;, Calibri, sans-serif">CAST_MEMBER</text></g></g><g class="related-pair"><g class="relationship" transform="translate(-407.08405883789106,-339.6429693603517) rotate(69.43788058819075)"><path class="relationship" d="M 100.36360145297148 4 L 462.8654567075074 4 L 462.8654567075074 16 L 494.8654567075074 0 L 462.8654567075074 -16 L 462.8654567075074 -4 L 100.36360145297148 -4 Z" fill="rgb(0, 0, 0)" stroke="rgb(51, 51, 51)" stroke-width="0px"/><text class="type" text-anchor="middle" baseline-shift="30%" alignment-baseline="alphabetic" x="281.61452908023944" y="0" font-size="50px" font-family="&quot;Gill Sans&quot;, &quot;Gill Sans MT&quot;, Calibri, sans-serif">VOTED</text></g></g></g><g class="layer nodes"><circle class="node node-id-0" r="85.36360145297148" fill="rgb(255, 255, 255)" stroke="rgb(0, 0, 0)" stroke-width="8px" cx="-407.08405883789106" cy="-339.6429693603517"/><g class="caption"><text class="caption node" text-anchor="middle" alignment-baseline="central" x="-407.08405883789106" y="-339.6429693603517" fill="rgb(51, 51, 51)" font-size="50px" font-family="&quot;Gill Sans&quot;, &quot;Gill Sans MT&quot;, Calibri, sans-serif">Movie</text></g><circle class="node node-id-4" r="88.0407586721947" fill="rgb(255, 255, 255)" stroke="rgb(0, 0, 0)" stroke-width="8px" cx="133.2924362182617" cy="-45.86253768920906"/><g class="caption"><text class="caption node" text-anchor="middle" alignment-baseline="central" x="133.2924362182617" y="-45.86253768920906" fill="rgb(51, 51, 51)" font-size="50px" font-family="&quot;Gill Sans&quot;, &quot;Gill Sans MT&quot;, Calibri, sans-serif">Genre</text></g><circle class="node node-id-5" r="93.24528049311195" fill="rgb(255, 255, 255)" stroke="rgb(0, 0, 0)" stroke-width="8px" cx="302.1697340393066" cy="-775.5924707031248"/><g class="caption"><text class="caption node" text-anchor="middle" alignment-baseline="central" x="302.1697340393066" y="-775.5924707031248" fill="rgb(51, 51, 51)" font-size="50px" font-family="&quot;Gill Sans&quot;, &quot;Gill Sans MT&quot;, Calibri, sans-serif">Person</text></g><circle class="node node-id-6" r="119.9497625098573" fill="rgb(255, 255, 255)" stroke="rgb(0, 0, 0)" stroke-width="8px" cx="-201.95323760986352" cy="-812.4305444335942"/><g class="caption"><text class="caption node" text-anchor="middle" alignment-baseline="central" x="-201.95323760986352" y="-837.4305444335942" fill="rgb(51, 51, 51)" font-size="50px" font-family="&quot;Gill Sans&quot;, &quot;Gill Sans MT&quot;, Calibri, sans-serif">Person</text><text class="caption node" text-anchor="middle" alignment-baseline="central" x="-201.95323760986352" y="-787.4305444335942" fill="rgb(51, 51, 51)" font-size="50px" font-family="&quot;Gill Sans&quot;, &quot;Gill Sans MT&quot;, Calibri, sans-serif"/></g><circle class="node node-id-7" r="93.24528049311195" fill="rgb(255, 255, 255)" stroke="rgb(0, 0, 0)" stroke-width="8px" cx="414.95451141357404" cy="-339.6429693603517"/><g class="caption"><text class="caption node" text-anchor="middle" alignment-baseline="central" x="414.95451141357404" y="-339.6429693603517" fill="rgb(51, 51, 51)" font-size="50px" font-family="&quot;Gill Sans&quot;, &quot;Gill Sans MT&quot;, Calibri, sans-serif">Person</text></g><circle class="node node-id-8" r="74.18226787956077" fill="rgb(255, 255, 255)" stroke="rgb(0, 0, 0)" stroke-width="8px" cx="-201.95323760986352" cy="207.19621246337877"/><g class="caption"><text class="caption node" text-anchor="middle" alignment-baseline="central" x="-201.95323760986352" y="207.19621246337877" fill="rgb(51, 51, 51)" font-size="50px" font-family="&quot;Gill Sans&quot;, &quot;Gill Sans MT&quot;, Calibri, sans-serif">User</text></g></g><g class="layer properties"><g class="speech-bubble node-speech-bubble" transform="translate(-492.44766029086253,-339.6429693603517) "><path class="speech-bubble-outline" transform="scale(-1,1) " d="M 0 0 L 20 -10 L 20 -250 A 10 10 0 0 1 30 -260 L 453.291015625 -260 A 10 10 0 0 1 463.291015625 -250 L 463.291015625 250 A 10 10 0 0 1 453.291015625 260 L 30 260 A 10 10 0 0 1 20 250 L 20 10 Z" fill="rgb(255, 255, 255)" stroke="rgb(0, 0, 0)" stroke-width="3px"/><text class="speech-bubble-content property-key" x="-186.8115234375" y="-225" alignment-baseline="central" text-anchor="end" font-size="50px" font-family="&quot;Gill Sans&quot;, &quot;Gill Sans MT&quot;, Calibri, sans-serif" xml:space="preserve">budget: </text><text class="speech-bubble-content property-key" x="-186.8115234375" y="-175" alignment-baseline="central" text-anchor="end" font-size="50px" font-family="&quot;Gill Sans&quot;, &quot;Gill Sans MT&quot;, Calibri, sans-serif" xml:space="preserve">movieId: </text><text class="speech-bubble-content property-value" x="-186.8115234375" y="-225" alignment-baseline="central" font-size="50px" font-family="&quot;Gill Sans&quot;, &quot;Gill Sans MT&quot;, Calibri, sans-serif">number</text><text class="speech-bubble-content property-value" x="-186.8115234375" y="-175" alignment-baseline="central" font-size="50px" font-family="&quot;Gill Sans&quot;, &quot;Gill Sans MT&quot;, Calibri, sans-serif">number</text><text class="speech-bubble-content property-key" x="-186.8115234375" y="-125" alignment-baseline="central" text-anchor="end" font-size="50px" font-family="&quot;Gill Sans&quot;, &quot;Gill Sans MT&quot;, Calibri, sans-serif" xml:space="preserve">poster: </text><text class="speech-bubble-content property-key" x="-186.8115234375" y="-75" alignment-baseline="central" text-anchor="end" font-size="50px" font-family="&quot;Gill Sans&quot;, &quot;Gill Sans MT&quot;, Calibri, sans-serif" xml:space="preserve">releaseDate: </text><text class="speech-bubble-content property-key" x="-186.8115234375" y="-25" alignment-baseline="central" text-anchor="end" font-size="50px" font-family="&quot;Gill Sans&quot;, &quot;Gill Sans MT&quot;, Calibri, sans-serif" xml:space="preserve">revenue: </text><text class="speech-bubble-content property-key" x="-186.8115234375" y="25" alignment-baseline="central" text-anchor="end" font-size="50px" font-family="&quot;Gill Sans&quot;, &quot;Gill Sans MT&quot;, Calibri, sans-serif" xml:space="preserve">runtime: </text><text class="speech-bubble-content property-key" x="-186.8115234375" y="75" alignment-baseline="central" text-anchor="end" font-size="50px" font-family="&quot;Gill Sans&quot;, &quot;Gill Sans MT&quot;, Calibri, sans-serif" xml:space="preserve">tagline: </text><text class="speech-bubble-content property-key" x="-186.8115234375" y="125" alignment-baseline="central" text-anchor="end" font-size="50px" font-family="&quot;Gill Sans&quot;, &quot;Gill Sans MT&quot;, Calibri, sans-serif" xml:space="preserve">title: </text><text class="speech-bubble-content property-key" x="-186.8115234375" y="175" alignment-baseline="central" text-anchor="end" font-size="50px" font-family="&quot;Gill Sans&quot;, &quot;Gill Sans MT&quot;, Calibri, sans-serif" xml:space="preserve">voteCount: </text><text class="speech-bubble-content property-key" x="-186.8115234375" y="225" alignment-baseline="central" text-anchor="end" font-size="50px" font-family="&quot;Gill Sans&quot;, &quot;Gill Sans MT&quot;, Calibri, sans-serif" xml:space="preserve">voteAvg: </text><text class="speech-bubble-content property-value" x="-186.8115234375" y="-125" alignment-baseline="central" font-size="50px" font-family="&quot;Gill Sans&quot;, &quot;Gill Sans MT&quot;, Calibri, sans-serif">URL</text><text class="speech-bubble-content property-value" x="-186.8115234375" y="-75" alignment-baseline="central" font-size="50px" font-family="&quot;Gill Sans&quot;, &quot;Gill Sans MT&quot;, Calibri, sans-serif">Date</text><text class="speech-bubble-content property-value" x="-186.8115234375" y="-25" alignment-baseline="central" font-size="50px" font-family="&quot;Gill Sans&quot;, &quot;Gill Sans MT&quot;, Calibri, sans-serif">number</text><text class="speech-bubble-content property-value" x="-186.8115234375" y="25" alignment-baseline="central" font-size="50px" font-family="&quot;Gill Sans&quot;, &quot;Gill Sans MT&quot;, Calibri, sans-serif">number</text><text class="speech-bubble-content property-value" x="-186.8115234375" y="75" alignment-baseline="central" font-size="50px" font-family="&quot;Gill Sans&quot;, &quot;Gill Sans MT&quot;, Calibri, sans-serif">string</text><text class="speech-bubble-content property-value" x="-186.8115234375" y="125" alignment-baseline="central" font-size="50px" font-family="&quot;Gill Sans&quot;, &quot;Gill Sans MT&quot;, Calibri, sans-serif">string</text><text class="speech-bubble-content property-value" x="-186.8115234375" y="175" alignment-baseline="central" font-size="50px" font-family="&quot;Gill Sans&quot;, &quot;Gill Sans MT&quot;, Calibri, sans-serif">number</text><text class="speech-bubble-content property-value" x="-186.8115234375" y="225" alignment-baseline="central" font-size="50px" font-family="&quot;Gill Sans&quot;, &quot;Gill Sans MT&quot;, Calibri, sans-serif">number</text></g><g class="speech-bubble node-speech-bubble" transform="translate(195.54665369617894,16.391679788708153) "><path class="speech-bubble-outline" transform="scale(1,1) " d="M 0 0 L 30 20 L 447.578125 20 A 10 10 0 0 1 457.578125 30 L 457.578125 130 A 10 10 0 0 1 447.578125 140 L 30 140 A 10 10 0 0 1 20 130 L 20 30 Z" fill="rgb(255, 255, 255)" stroke="rgb(0, 0, 0)" stroke-width="3px"/><text class="speech-bubble-content property-key" x="290.7666015625" y="55" alignment-baseline="central" text-anchor="end" font-size="50px" font-family="&quot;Gill Sans&quot;, &quot;Gill Sans MT&quot;, Calibri, sans-serif" xml:space="preserve">genreId: </text><text class="speech-bubble-content property-key" x="290.7666015625" y="105" alignment-baseline="central" text-anchor="end" font-size="50px" font-family="&quot;Gill Sans&quot;, &quot;Gill Sans MT&quot;, Calibri, sans-serif" xml:space="preserve">genreName: </text><text class="speech-bubble-content property-value" x="290.7666015625" y="55" alignment-baseline="central" font-size="50px" font-family="&quot;Gill Sans&quot;, &quot;Gill Sans MT&quot;, Calibri, sans-serif">number</text><text class="speech-bubble-content property-value" x="290.7666015625" y="105" alignment-baseline="central" font-size="50px" font-family="&quot;Gill Sans&quot;, &quot;Gill Sans MT&quot;, Calibri, sans-serif">string</text></g><g class="speech-bubble node-speech-bubble" transform="translate(368.1041041896278,-841.526840853446) "><path class="speech-bubble-outline" transform="scale(1,-1) " d="M 0 0 L 30 20 L 390.2294921875 20 A 10 10 0 0 1 400.2294921875 30 L 400.2294921875 130 A 10 10 0 0 1 390.2294921875 140 L 30 140 A 10 10 0 0 1 20 130 L 20 30 Z" fill="rgb(255, 255, 255)" stroke="rgb(0, 0, 0)" stroke-width="3px"/><text class="speech-bubble-content property-key" x="233.41796875" y="-105" alignment-baseline="central" text-anchor="end" font-size="50px" font-family="&quot;Gill Sans&quot;, &quot;Gill Sans MT&quot;, Calibri, sans-serif" xml:space="preserve">personId: </text><text class="speech-bubble-content property-key" x="233.41796875" y="-55" alignment-baseline="central" text-anchor="end" font-size="50px" font-family="&quot;Gill Sans&quot;, &quot;Gill Sans MT&quot;, Calibri, sans-serif" xml:space="preserve">Name: </text><text class="speech-bubble-content property-value" x="233.41796875" y="-105" alignment-baseline="central" font-size="50px" font-family="&quot;Gill Sans&quot;, &quot;Gill Sans MT&quot;, Calibri, sans-serif">number</text><text class="speech-bubble-content property-value" x="233.41796875" y="-55" alignment-baseline="central" font-size="50px" font-family="&quot;Gill Sans&quot;, &quot;Gill Sans MT&quot;, Calibri, sans-serif">string</text></g><g class="speech-bubble node-speech-bubble" transform="translate(-117.13594713742751,-897.2478349060302) "><path class="speech-bubble-outline" transform="scale(1,-1) " d="M 0 0 L 30 20 L 390.2294921875 20 A 10 10 0 0 1 400.2294921875 30 L 400.2294921875 130 A 10 10 0 0 1 390.2294921875 140 L 30 140 A 10 10 0 0 1 20 130 L 20 30 Z" fill="rgb(255, 255, 255)" stroke="rgb(0, 0, 0)" stroke-width="3px"/><text class="speech-bubble-content property-key" x="233.41796875" y="-105" alignment-baseline="central" text-anchor="end" font-size="50px" font-family="&quot;Gill Sans&quot;, &quot;Gill Sans MT&quot;, Calibri, sans-serif" xml:space="preserve">personId: </text><text class="speech-bubble-content property-key" x="233.41796875" y="-55" alignment-baseline="central" text-anchor="end" font-size="50px" font-family="&quot;Gill Sans&quot;, &quot;Gill Sans MT&quot;, Calibri, sans-serif" xml:space="preserve">Name: </text><text class="speech-bubble-content property-value" x="233.41796875" y="-105" alignment-baseline="central" font-size="50px" font-family="&quot;Gill Sans&quot;, &quot;Gill Sans MT&quot;, Calibri, sans-serif">number</text><text class="speech-bubble-content property-value" x="233.41796875" y="-55" alignment-baseline="central" font-size="50px" font-family="&quot;Gill Sans&quot;, &quot;Gill Sans MT&quot;, Calibri, sans-serif">string</text></g><g class="speech-bubble node-speech-bubble" transform="translate(508.19979190668596,-339.6429693603517) "><path class="speech-bubble-outline" transform="scale(1,1) " d="M 0 0 L 20 -10 L 20 -50 A 10 10 0 0 1 30 -60 L 390.2294921875 -60 A 10 10 0 0 1 400.2294921875 -50 L 400.2294921875 50 A 10 10 0 0 1 390.2294921875 60 L 30 60 A 10 10 0 0 1 20 50 L 20 10 Z" fill="rgb(255, 255, 255)" stroke="rgb(0, 0, 0)" stroke-width="3px"/><text class="speech-bubble-content property-key" x="233.41796875" y="-25" alignment-baseline="central" text-anchor="end" font-size="50px" font-family="&quot;Gill Sans&quot;, &quot;Gill Sans MT&quot;, Calibri, sans-serif" xml:space="preserve">personId: </text><text class="speech-bubble-content property-key" x="233.41796875" y="25" alignment-baseline="central" text-anchor="end" font-size="50px" font-family="&quot;Gill Sans&quot;, &quot;Gill Sans MT&quot;, Calibri, sans-serif" xml:space="preserve">Name: </text><text class="speech-bubble-content property-value" x="233.41796875" y="-25" alignment-baseline="central" font-size="50px" font-family="&quot;Gill Sans&quot;, &quot;Gill Sans MT&quot;, Calibri, sans-serif">number</text><text class="speech-bubble-content property-value" x="233.41796875" y="25" alignment-baseline="central" font-size="50px" font-family="&quot;Gill Sans&quot;, &quot;Gill Sans MT&quot;, Calibri, sans-serif">string</text></g><g class="speech-bubble node-speech-bubble" transform="translate(-201.95323760986352,281.37848034293955) "><path class="speech-bubble-outline" transform="scale(1,1) " d="M 0 0 L -10 20 L -167.333984375 20 A 10 10 0 0 0 -177.333984375 30 L -177.333984375 180 A 10 10 0 0 0 -167.333984375 190 L 167.333984375 190 A 10 10 0 0 0 177.333984375 180 L 177.333984375 30 A 10 10 0 0 0 167.333984375 20 L 10 20 Z" fill="rgb(255, 255, 255)" stroke="rgb(0, 0, 0)" stroke-width="3px"/><text class="speech-bubble-content property-key" x="54.345703125" y="55" alignment-baseline="central" text-anchor="end" font-size="50px" font-family="&quot;Gill Sans&quot;, &quot;Gill Sans MT&quot;, Calibri, sans-serif" xml:space="preserve">email: </text><text class="speech-bubble-content property-key" x="54.345703125" y="105" alignment-baseline="central" text-anchor="end" font-size="50px" font-family="&quot;Gill Sans&quot;, &quot;Gill Sans MT&quot;, Calibri, sans-serif" xml:space="preserve">password: </text><text class="speech-bubble-content property-key" x="54.345703125" y="155" alignment-baseline="central" text-anchor="end" font-size="50px" font-family="&quot;Gill Sans&quot;, &quot;Gill Sans MT&quot;, Calibri, sans-serif" xml:space="preserve">username: </text><text class="speech-bubble-content property-value" x="54.345703125" y="55" alignment-baseline="central" font-size="50px" font-family="&quot;Gill Sans&quot;, &quot;Gill Sans MT&quot;, Calibri, sans-serif">string</text><text class="speech-bubble-content property-value" x="54.345703125" y="105" alignment-baseline="central" font-size="50px" font-family="&quot;Gill Sans&quot;, &quot;Gill Sans MT&quot;, Calibri, sans-serif">strig</text><text class="speech-bubble-content property-value" x="54.345703125" y="155" alignment-baseline="central" font-size="50px" font-family="&quot;Gill Sans&quot;, &quot;Gill Sans MT&quot;, Calibri, sans-serif">string</text></g><g class="speech-bubble relationship-speech-bubble" transform="translate(-308.1746423842672,-75.96955332094774) "><path class="speech-bubble-outline" transform="scale(-1,1) " d="M 0 0 L 30 20 L 300.751953125 20 A 10 10 0 0 1 310.751953125 30 L 310.751953125 80 A 10 10 0 0 1 300.751953125 90 L 30 90 A 10 10 0 0 1 20 80 L 20 30 Z" fill="rgb(255, 255, 255)" stroke="rgb(0, 0, 0)" stroke-width="3px"/><text class="speech-bubble-content property-key" x="-186.8115234375" y="55" alignment-baseline="central" text-anchor="end" font-size="50px" font-family="&quot;Gill Sans&quot;, &quot;Gill Sans MT&quot;, Calibri, sans-serif" xml:space="preserve">vote: </text><text class="speech-bubble-content property-value" x="-186.8115234375" y="55" alignment-baseline="central" font-size="50px" font-family="&quot;Gill Sans&quot;, &quot;Gill Sans MT&quot;, Calibri, sans-serif">number</text></g></g><g class="layer overlay"><circle class="node overlay" r="89.36360145297148" stroke="none" fill="rgba(255, 255, 255, 0)" cx="-407.08405883789106" cy="-339.6429693603517"/><circle class="node ring" r="94.36360145297148" fill="none" stroke="rgba(255, 255, 255, 0)" stroke-width="10px" cx="-407.08405883789106" cy="-339.6429693603517"/><circle class="node overlay" r="92.0407586721947" stroke="none" fill="rgba(255, 255, 255, 0)" cx="133.2924362182617" cy="-45.86253768920906"/><circle class="node ring" r="97.0407586721947" fill="none" stroke="rgba(255, 255, 255, 0)" stroke-width="10px" cx="133.2924362182617" cy="-45.86253768920906"/><path class="relationship overlay" fill="rgba(255, 255, 255, 0)" stroke="rgba(255, 255, 255, 0)" stroke-width="10px" transform="translate(-407.08405883789106,-339.6429693603517) rotate(28.531103049845836)" d="M 100.36360145297148 4 L 480.0313496549959 4 L 480.0313496549959 16 L 512.0313496549959 0 L 480.0313496549959 -16 L 480.0313496549959 -4 L 100.36360145297148 -4 Z"/><circle class="node overlay" r="97.24528049311195" stroke="none" fill="rgba(255, 255, 255, 0)" cx="302.1697340393066" cy="-775.5924707031248"/><circle class="node ring" r="102.24528049311195" fill="none" stroke="rgba(255, 255, 255, 0)" stroke-width="10px" cx="302.1697340393066" cy="-775.5924707031248"/><path class="relationship overlay" fill="rgba(255, 255, 255, 0)" stroke="rgba(255, 255, 255, 0)" stroke-width="10px" transform="translate(-407.08405883789106,-339.6429693603517) rotate(-31.577353520746833)" d="M 100.36360145297148 4 L 692.2767374930212 4 L 692.2767374930212 16 L 724.2767374930212 0 L 692.2767374930212 -16 L 692.2767374930212 -4 L 100.36360145297148 -4 Z"/><circle class="node overlay" r="123.9497625098573" stroke="none" fill="rgba(255, 255, 255, 0)" cx="-201.95323760986352" cy="-812.4305444335942"/><circle class="node ring" r="128.9497625098573" fill="none" stroke="rgba(255, 255, 255, 0)" stroke-width="10px" cx="-201.95323760986352" cy="-812.4305444335942"/><path class="relationship overlay" fill="rgba(255, 255, 255, 0)" stroke="rgba(255, 255, 255, 0)" stroke-width="10px" transform="translate(-407.08405883789106,-339.6429693603517) rotate(-66.54517211834006)" d="M 100.36360145297148 4 L 348.42073039919734 4 L 348.42073039919734 16 L 380.42073039919734 0 L 348.42073039919734 -16 L 348.42073039919734 -4 L 100.36360145297148 -4 Z"/><circle class="node overlay" r="97.24528049311195" stroke="none" fill="rgba(255, 255, 255, 0)" cx="414.95451141357404" cy="-339.6429693603517"/><circle class="node ring" r="102.24528049311195" fill="none" stroke="rgba(255, 255, 255, 0)" stroke-width="10px" cx="414.95451141357404" cy="-339.6429693603517"/><path class="relationship overlay" fill="rgba(255, 255, 255, 0)" stroke="rgba(255, 255, 255, 0)" stroke-width="10px" transform="translate(-407.08405883789106,-339.6429693603517) rotate(0)" d="M 100.36360145297148 4 L 681.7932897583531 4 L 681.7932897583531 16 L 713.7932897583531 0 L 681.7932897583531 -16 L 681.7932897583531 -4 L 100.36360145297148 -4 Z"/><circle class="node overlay" r="78.18226787956077" stroke="none" fill="rgba(255, 255, 255, 0)" cx="-201.95323760986352" cy="207.19621246337877"/><circle class="node ring" r="83.18226787956077" fill="none" stroke="rgba(255, 255, 255, 0)" stroke-width="10px" cx="-201.95323760986352" cy="207.19621246337877"/><path class="relationship overlay" fill="rgba(255, 255, 255, 0)" stroke="rgba(255, 255, 255, 0)" stroke-width="10px" transform="translate(-407.08405883789106,-339.6429693603517) rotate(69.43788058819075)" d="M 100.36360145297148 4 L 462.8654567075074 4 L 462.8654567075074 16 L 494.8654567075074 0 L 462.8654567075074 -16 L 462.8654567075074 -4 L 100.36360145297148 -4 Z"/></g></svg>